# xmcd CD database file
#
# Track frame offsets:
#	150
#	27492
#	50971
#	74746
#	95544
#	113118
#	127721
#	149835
#	170243
#	185605
#	201646
#	212782
#
# Disc length: 3216 seconds
#
# Revision: 0
# Processed by: cddbd v1.5.2PL0 Copyright (c) Steve Scherf et al.
# Submitted via: CDex 1.82
#
DISCID=ce0c8e0c
DTITLE=Tord Gustavsen Trio - The Other Side
DYEAR=2018
DGENRE=Jazz
TTITLE0=The Tunnel
TTITLE1=Kirken, den er et gammelt hus
TTITLE2=Re-Melt
TTITLE3=Duality
TTITLE4=Ingen vinner frem til den evige ro
TTITLE5=Taste and See
TTITLE6=Schlafes Bruder
TTITLE7=Jesu, meine Freude - Jesus, det eneste
TTITLE8=The Other Side
TTITLE9=O Traurigkeit
TTITLE10=Left Over Lullaby No.4
TTITLE11=Curves
EXTD=YEAR: 2018
EXTT0=
EXTT1=
EXTT2=
EXTT3=
EXTT4=
EXTT5=
EXTT6=
EXTT7=
EXTT8=
EXTT9=
EXTT10=
EXTT11=
PLAYORDER=
